<svg width="275" height="70" viewBox="0 0 275 70" fill="none" xmlns="http://www.w3.org/2000/svg">
<path d="M61.0001 42.7482V31.9778L54.6317 30.8556C54.0705 28.7942 53.2531 26.8304 52.2039 25.0008L55.9127 19.7071L48.2877 12.0836L42.9929 15.7916C41.1751 14.7548 39.2109 13.9254 37.1369 13.3765L36.0145 6.99719H25.2419L24.1195 13.3643C22.0455 13.9254 20.0813 14.7426 18.2635 15.7916L12.9687 12.0714L5.34374 19.6949L9.05254 24.9886C8.00334 26.806 7.17374 28.7698 6.61254 30.8434L0.244141 31.9656V42.736L6.61254 43.8704C7.17374 45.9318 7.99114 47.8956 9.04034 49.7252L5.33154 55.019L15.1891 45.6147C13.8715 43.1508 13.1151 40.3453 13.1151 37.3569C13.1151 27.6965 20.9475 19.8656 30.6099 19.8656C40.2723 19.8656 48.1047 27.6965 48.1047 37.3569C48.1047 47.0174 40.2723 54.8482 30.6099 54.8482C27.5477 54.8482 24.6685 54.0676 22.1675 52.6771L12.8589 62.5327L18.2513 58.9222C20.0691 59.959 22.0211 60.7884 24.1073 61.3495L25.2297 67.7166H36.0023L37.1247 61.3495C39.1987 60.7884 41.1629 59.9712 42.9807 58.9222L48.2755 62.6181L55.9005 54.9946L52.1917 49.7009C53.2287 47.8834 54.0461 45.9196 54.6073 43.8582L61.0001 42.7482Z" fill="#E53E29"/>
<path d="M29.5972 41.6749C31.293 41.809 31.8664 43.968 31.8664 43.968L34.4894 46.5905C34.709 46.81 35.0018 46.9198 35.2946 46.9198C35.5874 46.9198 35.868 46.81 36.0998 46.5905L40.0526 42.6385C40.4918 42.1994 40.4918 41.4797 40.0526 41.0406L37.4296 38.4181C37.4296 38.4181 35.2336 37.8326 35.136 36.125L31.293 32.2827L29.6216 32.051C29.6216 32.051 27.0962 29.3797 23.4484 29.3797C21.777 29.3797 19.8616 29.9408 17.8486 31.5997C17.5436 31.8436 17.7266 32.3437 18.117 32.3437H18.1902C19.6786 32.3437 22.2772 32.9414 25.5102 36.1738L25.742 37.8448L26.0836 38.1864L16.3846 47.5175L6.9296 56.6047L1.0126 62.2765C0.3416 62.9352 0 63.8012 0 64.6673C0 65.5211 0.3172 66.3627 0.976 67.0092C1.6226 67.6557 2.4766 67.985 3.3184 67.985C4.1968 67.985 5.0752 67.6313 5.734 66.9482L11.346 61.008L20.3252 51.4939L29.5972 41.6749Z" fill="black"/>
<path d="M90.92 30.32L98.8 43H106.72L97.96 30.32H90.92ZM83.96 15V43H90.72V15H83.96ZM88.2 20.72H93.68C94.5867 20.72 95.36 20.8667 96 21.16C96.6667 21.4533 97.1733 21.88 97.52 22.44C97.8667 22.9733 98.04 23.6267 98.04 24.4C98.04 25.1733 97.8667 25.84 97.52 26.4C97.1733 26.9333 96.6667 27.3467 96 27.64C95.36 27.9067 94.5867 28.04 93.68 28.04H88.2V33.28H94.16C96.56 33.28 98.56 32.8933 100.16 32.12C101.76 31.3467 102.973 30.28 103.8 28.92C104.627 27.5333 105.04 25.9467 105.04 24.16C105.04 22.3467 104.627 20.76 103.8 19.4C102.973 18.0133 101.76 16.9333 100.16 16.16C98.56 15.3867 96.56 15 94.16 15H88.2V20.72ZM121.018 29C121.018 27.3467 121.338 25.8933 121.978 24.64C122.645 23.36 123.565 22.36 124.738 21.64C125.938 20.92 127.338 20.56 128.938 20.56C130.565 20.56 131.965 20.92 133.138 21.64C134.312 22.36 135.218 23.36 135.858 24.64C136.498 25.8933 136.818 27.3467 136.818 29C136.818 30.6533 136.485 32.12 135.818 33.4C135.178 34.6533 134.258 35.64 133.058 36.36C131.885 37.08 130.512 37.44 128.938 37.44C127.338 37.44 125.938 37.08 124.738 36.36C123.565 35.64 122.645 34.6533 121.978 33.4C121.338 32.12 121.018 30.6533 121.018 29ZM113.858 29C113.858 31.16 114.218 33.1467 114.938 34.96C115.685 36.7733 116.725 38.3467 118.058 39.68C119.418 41.0133 121.018 42.0533 122.858 42.8C124.698 43.52 126.725 43.88 128.938 43.88C131.125 43.88 133.138 43.52 134.978 42.8C136.818 42.0533 138.405 41.0133 139.738 39.68C141.098 38.3467 142.138 36.7733 142.858 34.96C143.605 33.1467 143.978 31.16 143.978 29C143.978 26.84 143.605 24.8667 142.858 23.08C142.112 21.2933 141.058 19.7467 139.698 18.44C138.338 17.1333 136.738 16.1333 134.898 15.44C133.085 14.72 131.098 14.36 128.938 14.36C126.805 14.36 124.818 14.72 122.978 15.44C121.138 16.1333 119.538 17.1333 118.178 18.44C116.818 19.7467 115.752 21.2933 114.978 23.08C114.232 24.8667 113.858 26.84 113.858 29ZM159.47 29C159.47 27.3467 159.79 25.8933 160.43 24.64C161.097 23.36 162.017 22.36 163.19 21.64C164.39 20.92 165.79 20.56 167.39 20.56C169.017 20.56 170.417 20.92 171.59 21.64C172.763 22.36 173.67 23.36 174.31 24.64C174.95 25.8933 175.27 27.3467 175.27 29C175.27 30.6533 174.937 32.12 174.27 33.4C173.63 34.6533 172.71 35.64 171.51 36.36C170.337 37.08 168.963 37.44 167.39 37.44C165.79 37.44 164.39 37.08 163.19 36.36C162.017 35.64 161.097 34.6533 160.43 33.4C159.79 32.12 159.47 30.6533 159.47 29ZM152.31 29C152.31 31.16 152.67 33.1467 153.39 34.96C154.137 36.7733 155.177 38.3467 156.51 39.68C157.87 41.0133 159.47 42.0533 161.31 42.8C163.15 43.52 165.177 43.88 167.39 43.88C169.577 43.88 171.59 43.52 173.43 42.8C175.27 42.0533 176.857 41.0133 178.19 39.68C179.55 38.3467 180.59 36.7733 181.31 34.96C182.057 33.1467 182.43 31.16 182.43 29C182.43 26.84 182.057 24.8667 181.31 23.08C180.563 21.2933 179.51 19.7467 178.15 18.44C176.79 17.1333 175.19 16.1333 173.35 15.44C171.537 14.72 169.55 14.36 167.39 14.36C165.257 14.36 163.27 14.72 161.43 15.44C159.59 16.1333 157.99 17.1333 156.63 18.44C155.27 19.7467 154.203 21.2933 153.43 23.08C152.683 24.8667 152.31 26.84 152.31 29ZM211.682 15V30.76L192.362 13.6V43H198.842V27.24L218.202 44.4V15H211.682ZM229.719 15V43H236.599V15H229.719ZM263.492 15L259.012 23.12L254.692 15H246.332L254.932 28.64L245.332 43H253.692L258.972 33.68L264.092 43H272.452L263.052 28.64L271.852 15H263.492Z" fill="#1C1C1C"/>
<path d="M83.366 65L81.336 58.056H82.512L83.982 63.502L85.606 58.056H86.936L88.574 63.502L90.03 58.056H91.22L89.19 65H87.986L86.278 59.274L84.57 65H83.366ZM96.1249 65.168C95.4716 65.168 94.8836 65.0187 94.3609 64.72C93.8383 64.4213 93.4229 64.0013 93.1149 63.46C92.8163 62.9093 92.6669 62.2653 92.6669 61.528C92.6669 60.7907 92.8209 60.1513 93.1289 59.61C93.4369 59.0593 93.8523 58.6347 94.3749 58.336C94.9069 58.0373 95.4996 57.888 96.1529 57.888C96.8063 57.888 97.3943 58.0373 97.9169 58.336C98.4396 58.6347 98.8503 59.0593 99.1489 59.61C99.4569 60.1513 99.6109 60.7907 99.6109 61.528C99.6109 62.2653 99.4569 62.9093 99.1489 63.46C98.8409 64.0013 98.4209 64.4213 97.8889 64.72C97.3663 65.0187 96.7783 65.168 96.1249 65.168ZM96.1249 64.16C96.5263 64.16 96.8996 64.062 97.2449 63.866C97.5903 63.67 97.8703 63.376 98.0849 62.984C98.2996 62.592 98.4069 62.1067 98.4069 61.528C98.4069 60.9493 98.2996 60.464 98.0849 60.072C97.8796 59.68 97.6043 59.386 97.2589 59.19C96.9136 58.994 96.5449 58.896 96.1529 58.896C95.7516 58.896 95.3783 58.994 95.0329 59.19C94.6876 59.386 94.4076 59.68 94.1929 60.072C93.9783 60.464 93.8709 60.9493 93.8709 61.528C93.8709 62.1067 93.9783 62.592 94.1929 62.984C94.4076 63.376 94.6829 63.67 95.0189 63.866C95.3643 64.062 95.7329 64.16 96.1249 64.16ZM101.946 65V58.056H103.01L103.108 59.386C103.323 58.9287 103.649 58.5647 104.088 58.294C104.527 58.0233 105.068 57.888 105.712 57.888V59.12H105.39C104.979 59.12 104.601 59.1947 104.256 59.344C103.911 59.484 103.635 59.7267 103.43 60.072C103.225 60.4173 103.122 60.8933 103.122 61.5V65H101.946ZM107.732 65V54.92H108.908V65H107.732ZM114.686 65.168C113.995 65.168 113.388 65.0093 112.866 64.692C112.352 64.3747 111.951 63.9407 111.662 63.39C111.382 62.8393 111.242 62.214 111.242 61.514C111.242 60.814 111.386 60.1933 111.676 59.652C111.965 59.1013 112.366 58.672 112.88 58.364C113.393 58.0467 114 57.888 114.7 57.888C115.269 57.888 115.773 58.0047 116.212 58.238C116.65 58.4713 116.991 58.798 117.234 59.218V54.92H118.41V65H117.346L117.234 63.852C117.01 64.188 116.688 64.4913 116.268 64.762C115.848 65.0327 115.32 65.168 114.686 65.168ZM114.812 64.146C115.278 64.146 115.689 64.0387 116.044 63.824C116.408 63.6 116.688 63.292 116.884 62.9C117.089 62.508 117.192 62.0507 117.192 61.528C117.192 61.0053 117.089 60.548 116.884 60.156C116.688 59.764 116.408 59.4607 116.044 59.246C115.689 59.022 115.278 58.91 114.812 58.91C114.354 58.91 113.944 59.022 113.58 59.246C113.225 59.4607 112.945 59.764 112.74 60.156C112.544 60.548 112.446 61.0053 112.446 61.528C112.446 62.0507 112.544 62.508 112.74 62.9C112.945 63.292 113.225 63.6 113.58 63.824C113.944 64.0387 114.354 64.146 114.812 64.146ZM128.624 65.168C127.961 65.168 127.364 65.0187 126.832 64.72C126.309 64.412 125.894 63.9873 125.586 63.446C125.287 62.8953 125.138 62.256 125.138 61.528C125.138 60.8 125.287 60.1653 125.586 59.624C125.894 59.0733 126.309 58.6487 126.832 58.35C127.364 58.042 127.961 57.888 128.624 57.888C129.445 57.888 130.136 58.1027 130.696 58.532C131.265 58.9613 131.624 59.5353 131.774 60.254H130.57C130.476 59.8247 130.248 59.4933 129.884 59.26C129.52 59.0173 129.095 58.896 128.61 58.896C128.218 58.896 127.849 58.994 127.504 59.19C127.158 59.386 126.878 59.68 126.664 60.072C126.449 60.464 126.342 60.9493 126.342 61.528C126.342 62.1067 126.449 62.592 126.664 62.984C126.878 63.376 127.158 63.6747 127.504 63.88C127.849 64.076 128.218 64.174 128.61 64.174C129.095 64.174 129.52 64.0573 129.884 63.824C130.248 63.5813 130.476 63.2407 130.57 62.802H131.774C131.634 63.502 131.279 64.0713 130.71 64.51C130.14 64.9487 129.445 65.168 128.624 65.168ZM134.116 65V54.92H135.292V65H134.116ZM140.23 65.168C139.651 65.168 139.17 65.07 138.788 64.874C138.405 64.678 138.12 64.4167 137.934 64.09C137.747 63.7633 137.654 63.4087 137.654 63.026C137.654 62.3167 137.924 61.7707 138.466 61.388C139.007 61.0053 139.744 60.814 140.678 60.814H142.554V60.73C142.554 60.1233 142.395 59.666 142.078 59.358C141.76 59.0407 141.336 58.882 140.804 58.882C140.346 58.882 139.95 58.9987 139.614 59.232C139.287 59.456 139.082 59.7873 138.998 60.226H137.794C137.84 59.722 138.008 59.2973 138.298 58.952C138.596 58.6067 138.965 58.3453 139.404 58.168C139.842 57.9813 140.309 57.888 140.804 57.888C141.774 57.888 142.502 58.1493 142.988 58.672C143.482 59.1853 143.73 59.8713 143.73 60.73V65H142.68L142.61 63.754C142.414 64.146 142.124 64.482 141.742 64.762C141.368 65.0327 140.864 65.168 140.23 65.168ZM140.412 64.174C140.86 64.174 141.242 64.0573 141.56 63.824C141.886 63.5907 142.134 63.2873 142.302 62.914C142.47 62.5407 142.554 62.1487 142.554 61.738V61.724H140.776C140.085 61.724 139.595 61.8453 139.306 62.088C139.026 62.3213 138.886 62.6153 138.886 62.97C138.886 63.334 139.016 63.628 139.278 63.852C139.548 64.0667 139.926 64.174 140.412 64.174ZM148.854 65.168C148.023 65.168 147.332 64.958 146.782 64.538C146.231 64.118 145.909 63.5487 145.816 62.83H147.02C147.094 63.194 147.286 63.5113 147.594 63.782C147.911 64.0433 148.336 64.174 148.868 64.174C149.362 64.174 149.726 64.0713 149.96 63.866C150.193 63.6513 150.31 63.3993 150.31 63.11C150.31 62.69 150.156 62.41 149.848 62.27C149.549 62.13 149.124 62.004 148.574 61.892C148.2 61.8173 147.827 61.71 147.454 61.57C147.08 61.43 146.768 61.234 146.516 60.982C146.264 60.7207 146.138 60.38 146.138 59.96C146.138 59.3533 146.362 58.8587 146.81 58.476C147.267 58.084 147.883 57.888 148.658 57.888C149.395 57.888 149.997 58.0747 150.464 58.448C150.94 58.812 151.215 59.3347 151.29 60.016H150.128C150.081 59.6613 149.927 59.386 149.666 59.19C149.414 58.9847 149.073 58.882 148.644 58.882C148.224 58.882 147.897 58.9707 147.664 59.148C147.44 59.3253 147.328 59.5587 147.328 59.848C147.328 60.128 147.472 60.3473 147.762 60.506C148.06 60.6647 148.462 60.8 148.966 60.912C149.395 61.0053 149.801 61.122 150.184 61.262C150.576 61.3927 150.893 61.5933 151.136 61.864C151.388 62.1253 151.514 62.508 151.514 63.012C151.523 63.6373 151.285 64.1553 150.8 64.566C150.324 64.9673 149.675 65.168 148.854 65.168ZM156.554 65.168C155.723 65.168 155.032 64.958 154.482 64.538C153.931 64.118 153.609 63.5487 153.516 62.83H154.72C154.794 63.194 154.986 63.5113 155.294 63.782C155.611 64.0433 156.036 64.174 156.568 64.174C157.062 64.174 157.426 64.0713 157.66 63.866C157.893 63.6513 158.01 63.3993 158.01 63.11C158.01 62.69 157.856 62.41 157.548 62.27C157.249 62.13 156.824 62.004 156.274 61.892C155.9 61.8173 155.527 61.71 155.154 61.57C154.78 61.43 154.468 61.234 154.216 60.982C153.964 60.7207 153.838 60.38 153.838 59.96C153.838 59.3533 154.062 58.8587 154.51 58.476C154.967 58.084 155.583 57.888 156.358 57.888C157.095 57.888 157.697 58.0747 158.164 58.448C158.64 58.812 158.915 59.3347 158.99 60.016H157.828C157.781 59.6613 157.627 59.386 157.366 59.19C157.114 58.9847 156.773 58.882 156.344 58.882C155.924 58.882 155.597 58.9707 155.364 59.148C155.14 59.3253 155.028 59.5587 155.028 59.848C155.028 60.128 155.172 60.3473 155.462 60.506C155.76 60.6647 156.162 60.8 156.666 60.912C157.095 61.0053 157.501 61.122 157.884 61.262C158.276 61.3927 158.593 61.5933 158.836 61.864C159.088 62.1253 159.214 62.508 159.214 63.012C159.223 63.6373 158.985 64.1553 158.5 64.566C158.024 64.9673 157.375 65.168 156.554 65.168ZM166.069 65V55.2H169.233C169.998 55.2 170.623 55.326 171.109 55.578C171.594 55.83 171.953 56.1753 172.187 56.614C172.42 57.0527 172.537 57.538 172.537 58.07C172.537 58.686 172.369 59.2413 172.033 59.736C171.706 60.2307 171.193 60.5807 170.493 60.786L172.635 65H171.249L169.261 60.954H169.177H167.245V65H166.069ZM167.245 60.03H169.149C169.905 60.03 170.455 59.848 170.801 59.484C171.146 59.12 171.319 58.6533 171.319 58.084C171.319 57.5053 171.146 57.048 170.801 56.712C170.465 56.3667 169.909 56.194 169.135 56.194H167.245V60.03ZM177.738 65.168C177.084 65.168 176.496 65.0187 175.974 64.72C175.451 64.4213 175.036 64.0013 174.728 63.46C174.429 62.9093 174.28 62.2653 174.28 61.528C174.28 60.7907 174.434 60.1513 174.742 59.61C175.05 59.0593 175.465 58.6347 175.988 58.336C176.52 58.0373 177.112 57.888 177.766 57.888C178.419 57.888 179.007 58.0373 179.53 58.336C180.052 58.6347 180.463 59.0593 180.762 59.61C181.07 60.1513 181.224 60.7907 181.224 61.528C181.224 62.2653 181.07 62.9093 180.762 63.46C180.454 64.0013 180.034 64.4213 179.502 64.72C178.979 65.0187 178.391 65.168 177.738 65.168ZM177.738 64.16C178.139 64.16 178.512 64.062 178.858 63.866C179.203 63.67 179.483 63.376 179.698 62.984C179.912 62.592 180.02 62.1067 180.02 61.528C180.02 60.9493 179.912 60.464 179.698 60.072C179.492 59.68 179.217 59.386 178.872 59.19C178.526 58.994 178.158 58.896 177.766 58.896C177.364 58.896 176.991 58.994 176.646 59.19C176.3 59.386 176.02 59.68 175.806 60.072C175.591 60.464 175.484 60.9493 175.484 61.528C175.484 62.1067 175.591 62.592 175.806 62.984C176.02 63.376 176.296 63.67 176.632 63.866C176.977 64.062 177.346 64.16 177.738 64.16ZM186.723 65.168C186.07 65.168 185.482 65.0187 184.959 64.72C184.436 64.4213 184.021 64.0013 183.713 63.46C183.414 62.9093 183.265 62.2653 183.265 61.528C183.265 60.7907 183.419 60.1513 183.727 59.61C184.035 59.0593 184.45 58.6347 184.973 58.336C185.505 58.0373 186.098 57.888 186.751 57.888C187.404 57.888 187.992 58.0373 188.515 58.336C189.038 58.6347 189.448 59.0593 189.747 59.61C190.055 60.1513 190.209 60.7907 190.209 61.528C190.209 62.2653 190.055 62.9093 189.747 63.46C189.439 64.0013 189.019 64.4213 188.487 64.72C187.964 65.0187 187.376 65.168 186.723 65.168ZM186.723 64.16C187.124 64.16 187.498 64.062 187.843 63.866C188.188 63.67 188.468 63.376 188.683 62.984C188.898 62.592 189.005 62.1067 189.005 61.528C189.005 60.9493 188.898 60.464 188.683 60.072C188.478 59.68 188.202 59.386 187.857 59.19C187.512 58.994 187.143 58.896 186.751 58.896C186.35 58.896 185.976 58.994 185.631 59.19C185.286 59.386 185.006 59.68 184.791 60.072C184.576 60.464 184.469 60.9493 184.469 61.528C184.469 62.1067 184.576 62.592 184.791 62.984C185.006 63.376 185.281 63.67 185.617 63.866C185.962 64.062 186.331 64.16 186.723 64.16ZM192.922 65V59.05H191.872V58.056H192.922V56.852C192.922 56.18 193.09 55.69 193.426 55.382C193.762 55.074 194.252 54.92 194.896 54.92H195.596V55.928H195.078C194.723 55.928 194.471 56.0027 194.322 56.152C194.173 56.292 194.098 56.5347 194.098 56.88V58.056H198.41V65H197.234V59.05H194.098V65H192.922ZM197.836 56.726C197.612 56.726 197.421 56.6513 197.262 56.502C197.103 56.3433 197.024 56.1473 197.024 55.914C197.024 55.69 197.103 55.5033 197.262 55.354C197.421 55.2047 197.612 55.13 197.836 55.13C198.069 55.13 198.261 55.2047 198.41 55.354C198.569 55.5033 198.648 55.69 198.648 55.914C198.648 56.1473 198.569 56.3433 198.41 56.502C198.261 56.6513 198.069 56.726 197.836 56.726ZM201.187 65V58.056H202.251L202.321 59.302C202.545 58.8633 202.867 58.518 203.287 58.266C203.707 58.014 204.183 57.888 204.715 57.888C205.537 57.888 206.19 58.14 206.675 58.644C207.17 59.1387 207.417 59.904 207.417 60.94V65H206.241V61.066C206.241 59.6193 205.644 58.896 204.449 58.896C203.852 58.896 203.353 59.1153 202.951 59.554C202.559 59.9833 202.363 60.5993 202.363 61.402V65H201.187ZM212.643 62.816C212.251 62.816 211.892 62.7647 211.565 62.662L210.865 63.32C210.968 63.3947 211.094 63.46 211.243 63.516C211.402 63.5627 211.626 63.6093 211.915 63.656C212.205 63.6933 212.611 63.7353 213.133 63.782C214.067 63.8473 214.734 64.062 215.135 64.426C215.537 64.79 215.737 65.266 215.737 65.854C215.737 66.2553 215.625 66.638 215.401 67.002C215.187 67.366 214.851 67.6647 214.393 67.898C213.945 68.1313 213.367 68.248 212.657 68.248C212.032 68.248 211.477 68.164 210.991 67.996C210.506 67.8373 210.128 67.59 209.857 67.254C209.587 66.9273 209.451 66.512 209.451 66.008C209.451 65.7467 209.521 65.462 209.661 65.154C209.801 64.8553 210.063 64.5707 210.445 64.3C210.24 64.216 210.063 64.1273 209.913 64.034C209.773 63.9313 209.643 63.8193 209.521 63.698V63.376L210.711 62.2C210.161 61.7333 209.885 61.1173 209.885 60.352C209.885 59.8947 209.993 59.4793 210.207 59.106C210.422 58.7327 210.735 58.4387 211.145 58.224C211.556 58 212.055 57.888 212.643 57.888C213.045 57.888 213.409 57.944 213.735 58.056H216.297V58.938L214.995 58.994C215.266 59.386 215.401 59.8387 215.401 60.352C215.401 60.8093 215.289 61.2247 215.065 61.598C214.851 61.9713 214.538 62.27 214.127 62.494C213.726 62.7087 213.231 62.816 212.643 62.816ZM212.643 61.85C213.138 61.85 213.53 61.724 213.819 61.472C214.118 61.2107 214.267 60.8373 214.267 60.352C214.267 59.876 214.118 59.512 213.819 59.26C213.53 58.9987 213.138 58.868 212.643 58.868C212.139 58.868 211.738 58.9987 211.439 59.26C211.15 59.512 211.005 59.876 211.005 60.352C211.005 60.8373 211.15 61.2107 211.439 61.472C211.738 61.724 212.139 61.85 212.643 61.85ZM210.599 65.896C210.599 66.3627 210.795 66.708 211.187 66.932C211.579 67.1653 212.069 67.282 212.657 67.282C213.236 67.282 213.698 67.156 214.043 66.904C214.398 66.652 214.575 66.316 214.575 65.896C214.575 65.5973 214.454 65.336 214.211 65.112C213.969 64.8973 213.521 64.7713 212.867 64.734C212.354 64.6967 211.911 64.65 211.537 64.594C211.155 64.7993 210.903 65.0187 210.781 65.252C210.66 65.4947 210.599 65.7093 210.599 65.896ZM225.921 65.168C225.202 65.168 224.577 65.0373 224.045 64.776C223.513 64.5147 223.102 64.1507 222.813 63.684C222.524 63.2173 222.379 62.676 222.379 62.06H223.611C223.611 62.4427 223.7 62.7973 223.877 63.124C224.054 63.4413 224.311 63.698 224.647 63.894C224.992 64.0807 225.417 64.174 225.921 64.174C226.584 64.174 227.097 64.0153 227.461 63.698C227.825 63.3807 228.007 62.984 228.007 62.508C228.007 62.116 227.923 61.8033 227.755 61.57C227.587 61.3273 227.358 61.1313 227.069 60.982C226.789 60.8327 226.462 60.702 226.089 60.59C225.725 60.478 225.342 60.352 224.941 60.212C224.185 59.9507 223.625 59.6287 223.261 59.246C222.897 58.854 222.715 58.3453 222.715 57.72C222.706 57.1973 222.827 56.7353 223.079 56.334C223.331 55.9233 223.686 55.606 224.143 55.382C224.61 55.1487 225.16 55.032 225.795 55.032C226.42 55.032 226.962 55.1487 227.419 55.382C227.886 55.6153 228.245 55.9373 228.497 56.348C228.758 56.7587 228.894 57.2253 228.903 57.748H227.671C227.671 57.4773 227.601 57.2113 227.461 56.95C227.321 56.6793 227.106 56.46 226.817 56.292C226.537 56.124 226.182 56.04 225.753 56.04C225.221 56.0307 224.782 56.166 224.437 56.446C224.101 56.726 223.933 57.1133 223.933 57.608C223.933 58.028 224.05 58.35 224.283 58.574C224.526 58.798 224.862 58.9847 225.291 59.134C225.72 59.274 226.215 59.4373 226.775 59.624C227.242 59.792 227.662 59.988 228.035 60.212C228.408 60.436 228.698 60.7253 228.903 61.08C229.118 61.4347 229.225 61.8873 229.225 62.438C229.225 62.9047 229.104 63.348 228.861 63.768C228.618 64.1787 228.25 64.5147 227.755 64.776C227.27 65.0373 226.658 65.168 225.921 65.168ZM234.645 65.168C233.982 65.168 233.394 65.0187 232.881 64.72C232.367 64.412 231.961 63.9873 231.663 63.446C231.373 62.9047 231.229 62.2653 231.229 61.528C231.229 60.8 231.373 60.1653 231.663 59.624C231.952 59.0733 232.353 58.6487 232.867 58.35C233.389 58.042 233.991 57.888 234.673 57.888C235.345 57.888 235.923 58.042 236.409 58.35C236.903 58.6487 237.281 59.0453 237.543 59.54C237.804 60.0347 237.935 60.5667 237.935 61.136C237.935 61.2387 237.93 61.3413 237.921 61.444C237.921 61.5467 237.921 61.6633 237.921 61.794H232.391C232.419 62.326 232.54 62.7693 232.755 63.124C232.979 63.4693 233.254 63.7307 233.581 63.908C233.917 64.0853 234.271 64.174 234.645 64.174C235.13 64.174 235.536 64.062 235.863 63.838C236.189 63.614 236.427 63.3107 236.577 62.928H237.739C237.552 63.572 237.193 64.1087 236.661 64.538C236.138 64.958 235.466 65.168 234.645 65.168ZM234.645 58.882C234.085 58.882 233.585 59.0547 233.147 59.4C232.717 59.736 232.47 60.2307 232.405 60.884H236.773C236.745 60.2587 236.53 59.7687 236.129 59.414C235.727 59.0593 235.233 58.882 234.645 58.882ZM240.193 65V58.056H241.257L241.355 59.386C241.57 58.9287 241.897 58.5647 242.335 58.294C242.774 58.0233 243.315 57.888 243.959 57.888V59.12H243.637C243.227 59.12 242.849 59.1947 242.503 59.344C242.158 59.484 241.883 59.7267 241.677 60.072C241.472 60.4173 241.369 60.8933 241.369 61.5V65H240.193ZM247.981 65L245.349 58.056H246.581L248.667 63.866L250.767 58.056H251.971L249.339 65H247.981ZM254.694 56.516C254.461 56.516 254.265 56.4413 254.106 56.292C253.957 56.1333 253.882 55.9373 253.882 55.704C253.882 55.48 253.957 55.2933 254.106 55.144C254.265 54.9947 254.461 54.92 254.694 54.92C254.918 54.92 255.109 54.9947 255.268 55.144C255.427 55.2933 255.506 55.48 255.506 55.704C255.506 55.9373 255.427 56.1333 255.268 56.292C255.109 56.4413 254.918 56.516 254.694 56.516ZM254.106 65V58.056H255.282V65H254.106ZM261.222 65.168C260.559 65.168 259.962 65.0187 259.43 64.72C258.907 64.412 258.492 63.9873 258.184 63.446C257.885 62.8953 257.736 62.256 257.736 61.528C257.736 60.8 257.885 60.1653 258.184 59.624C258.492 59.0733 258.907 58.6487 259.43 58.35C259.962 58.042 260.559 57.888 261.222 57.888C262.043 57.888 262.734 58.1027 263.294 58.532C263.863 58.9613 264.222 59.5353 264.372 60.254H263.168C263.074 59.8247 262.846 59.4933 262.482 59.26C262.118 59.0173 261.693 58.896 261.208 58.896C260.816 58.896 260.447 58.994 260.102 59.19C259.756 59.386 259.476 59.68 259.262 60.072C259.047 60.464 258.94 60.9493 258.94 61.528C258.94 62.1067 259.047 62.592 259.262 62.984C259.476 63.376 259.756 63.6747 260.102 63.88C260.447 64.076 260.816 64.174 261.208 64.174C261.693 64.174 262.118 64.0573 262.482 63.824C262.846 63.5813 263.074 63.2407 263.168 62.802H264.372C264.232 63.502 263.877 64.0713 263.308 64.51C262.738 64.9487 262.043 65.168 261.222 65.168ZM269.836 65.168C269.173 65.168 268.585 65.0187 268.072 64.72C267.559 64.412 267.153 63.9873 266.854 63.446C266.565 62.9047 266.42 62.2653 266.42 61.528C266.42 60.8 266.565 60.1653 266.854 59.624C267.143 59.0733 267.545 58.6487 268.058 58.35C268.581 58.042 269.183 57.888 269.864 57.888C270.536 57.888 271.115 58.042 271.6 58.35C272.095 58.6487 272.473 59.0453 272.734 59.54C272.995 60.0347 273.126 60.5667 273.126 61.136C273.126 61.2387 273.121 61.3413 273.112 61.444C273.112 61.5467 273.112 61.6633 273.112 61.794H267.582C267.61 62.326 267.731 62.7693 267.946 63.124C268.17 63.4693 268.445 63.7307 268.772 63.908C269.108 64.0853 269.463 64.174 269.836 64.174C270.321 64.174 270.727 64.062 271.054 63.838C271.381 63.614 271.619 63.3107 271.768 62.928H272.93C272.743 63.572 272.384 64.1087 271.852 64.538C271.329 64.958 270.657 65.168 269.836 65.168ZM269.836 58.882C269.276 58.882 268.777 59.0547 268.338 59.4C267.909 59.736 267.661 60.2307 267.596 60.884H271.964C271.936 60.2587 271.721 59.7687 271.32 59.414C270.919 59.0593 270.424 58.882 269.836 58.882Z" fill="#6E6E74"/>
</svg>
