<svg width="194" height="149" viewBox="0 0 194 149" fill="none" xmlns="http://www.w3.org/2000/svg">
<path d="M126 35.7511V24.9806L119.632 23.8584C119.071 21.797 118.253 19.8332 117.204 18.0036L120.913 12.7099L113.288 5.08638L107.993 8.79444C106.175 7.75765 104.211 6.92821 102.137 6.37932L101.015 0H90.2419L89.1195 6.36713C87.0455 6.92821 85.0813 7.74545 83.2635 8.79444L77.9687 5.07418L70.3437 12.6977L74.0525 17.9914C73.0033 19.8088 72.1737 21.7726 71.6125 23.8462L65.2441 24.9684V35.7389L71.6125 36.8732C72.1737 38.9346 72.9911 40.8984 74.0403 42.7281L70.3315 48.0218L80.1891 38.6175C78.8715 36.1536 78.1151 33.3481 78.1151 30.3597C78.1151 20.6993 85.9475 12.8684 95.6099 12.8684C105.272 12.8684 113.105 20.6993 113.105 30.3597C113.105 40.0202 105.272 47.851 95.6099 47.851C92.5477 47.851 89.6685 47.0704 87.1675 45.6799L77.8589 55.5355L83.2513 51.925C85.0691 52.9618 87.0211 53.7912 89.1073 54.3523L90.2297 60.7195H101.002L102.125 54.3523C104.199 53.7912 106.163 52.974 107.981 51.925L113.276 55.6209L120.901 47.9974L117.192 42.7037C118.229 40.8862 119.046 38.9224 119.607 36.861L126 35.7511Z" fill="#E53E29"/>
<path d="M94.5972 34.6777C96.293 34.8118 96.8664 36.9708 96.8664 36.9708L99.4894 39.5933C99.709 39.8128 100.002 39.9226 100.295 39.9226C100.587 39.9226 100.868 39.8128 101.1 39.5933L105.053 35.6413C105.492 35.2022 105.492 34.4825 105.053 34.0434L102.43 31.4209C102.43 31.4209 100.234 30.8354 100.136 29.1278L96.293 25.2855L94.6216 25.0538C94.6216 25.0538 92.0962 22.3825 88.4484 22.3825C86.777 22.3825 84.8616 22.9436 82.8486 24.6025C82.5436 24.8464 82.7266 25.3465 83.117 25.3465H83.1902C84.6786 25.3465 87.2772 25.9442 90.5102 29.1766L90.742 30.8476L91.0836 31.1892L81.3846 40.5203L71.9296 49.6075L66.0126 55.2793C65.3416 55.938 65 56.804 65 57.6701C65 58.5239 65.3172 59.3655 65.976 60.012C66.6226 60.6585 67.4766 60.9878 68.3184 60.9878C69.1968 60.9878 70.0752 60.6341 70.734 59.951L76.346 54.0108L85.3252 44.4967L94.5972 34.6777Z" fill="white"/>
<path d="M9.92 102.323L17.8 115.003H25.72L16.96 102.323H9.92ZM2.96 87.0028V115.003H9.72V87.0028H2.96ZM7.2 92.7228H12.68C13.5867 92.7228 14.36 92.8695 15 93.1628C15.6667 93.4561 16.1733 93.8828 16.52 94.4428C16.8667 94.9761 17.04 95.6295 17.04 96.4028C17.04 97.1761 16.8667 97.8428 16.52 98.4028C16.1733 98.9361 15.6667 99.3495 15 99.6428C14.36 99.9095 13.5867 100.043 12.68 100.043H7.2V105.283H13.16C15.56 105.283 17.56 104.896 19.16 104.123C20.76 103.349 21.9733 102.283 22.8 100.923C23.6267 99.5361 24.04 97.9495 24.04 96.1628C24.04 94.3495 23.6267 92.7628 22.8 91.4028C21.9733 90.0161 20.76 88.9361 19.16 88.1628C17.56 87.3895 15.56 87.0028 13.16 87.0028H7.2V92.7228ZM40.0184 101.003C40.0184 99.3495 40.3384 97.8961 40.9784 96.6428C41.6451 95.3628 42.5651 94.3628 43.7384 93.6428C44.9384 92.9228 46.3384 92.5628 47.9384 92.5628C49.5651 92.5628 50.9651 92.9228 52.1384 93.6428C53.3118 94.3628 54.2184 95.3628 54.8584 96.6428C55.4984 97.8961 55.8184 99.3495 55.8184 101.003C55.8184 102.656 55.4851 104.123 54.8184 105.403C54.1784 106.656 53.2584 107.643 52.0584 108.363C50.8851 109.083 49.5118 109.443 47.9384 109.443C46.3384 109.443 44.9384 109.083 43.7384 108.363C42.5651 107.643 41.6451 106.656 40.9784 105.403C40.3384 104.123 40.0184 102.656 40.0184 101.003ZM32.8584 101.003C32.8584 103.163 33.2184 105.149 33.9384 106.963C34.6851 108.776 35.7251 110.349 37.0584 111.683C38.4184 113.016 40.0184 114.056 41.8584 114.803C43.6984 115.523 45.7251 115.883 47.9384 115.883C50.1251 115.883 52.1384 115.523 53.9784 114.803C55.8184 114.056 57.4051 113.016 58.7384 111.683C60.0984 110.349 61.1384 108.776 61.8584 106.963C62.6051 105.149 62.9784 103.163 62.9784 101.003C62.9784 98.8428 62.6051 96.8695 61.8584 95.0828C61.1118 93.2961 60.0584 91.7495 58.6984 90.4428C57.3384 89.1361 55.7384 88.1361 53.8984 87.4428C52.0851 86.7228 50.0984 86.3628 47.9384 86.3628C45.8051 86.3628 43.8184 86.7228 41.9784 87.4428C40.1384 88.1361 38.5384 89.1361 37.1784 90.4428C35.8184 91.7495 34.7518 93.2961 33.9784 95.0828C33.2318 96.8695 32.8584 98.8428 32.8584 101.003ZM78.47 101.003C78.47 99.3495 78.79 97.8961 79.43 96.6428C80.0967 95.3628 81.0167 94.3628 82.19 93.6428C83.39 92.9228 84.79 92.5628 86.39 92.5628C88.0167 92.5628 89.4167 92.9228 90.59 93.6428C91.7633 94.3628 92.67 95.3628 93.31 96.6428C93.95 97.8961 94.27 99.3495 94.27 101.003C94.27 102.656 93.9367 104.123 93.27 105.403C92.63 106.656 91.71 107.643 90.51 108.363C89.3367 109.083 87.9633 109.443 86.39 109.443C84.79 109.443 83.39 109.083 82.19 108.363C81.0167 107.643 80.0967 106.656 79.43 105.403C78.79 104.123 78.47 102.656 78.47 101.003ZM71.31 101.003C71.31 103.163 71.67 105.149 72.39 106.963C73.1367 108.776 74.1767 110.349 75.51 111.683C76.87 113.016 78.47 114.056 80.31 114.803C82.15 115.523 84.1767 115.883 86.39 115.883C88.5767 115.883 90.59 115.523 92.43 114.803C94.27 114.056 95.8567 113.016 97.19 111.683C98.55 110.349 99.59 108.776 100.31 106.963C101.057 105.149 101.43 103.163 101.43 101.003C101.43 98.8428 101.057 96.8695 100.31 95.0828C99.5633 93.2961 98.51 91.7495 97.15 90.4428C95.79 89.1361 94.19 88.1361 92.35 87.4428C90.5367 86.7228 88.55 86.3628 86.39 86.3628C84.2567 86.3628 82.27 86.7228 80.43 87.4428C78.59 88.1361 76.99 89.1361 75.63 90.4428C74.27 91.7495 73.2033 93.2961 72.43 95.0828C71.6833 96.8695 71.31 98.8428 71.31 101.003ZM130.682 87.0028V102.763L111.362 85.6028V115.003H117.842V99.2428L137.202 116.403V87.0028H130.682ZM148.719 87.0028V115.003H155.599V87.0028H148.719ZM182.492 87.0028L178.012 95.1228L173.692 87.0028H165.332L173.932 100.643L164.332 115.003H172.692L177.972 105.683L183.092 115.003H191.452L182.052 100.643L190.852 87.0028H182.492Z" fill="white"/>
<path d="M2.366 143.003L0.336 136.059H1.512L2.982 141.505L4.606 136.059H5.936L7.574 141.505L9.03 136.059H10.22L8.19 143.003H6.986L5.278 137.277L3.57 143.003H2.366ZM15.1249 143.171C14.4716 143.171 13.8836 143.021 13.3609 142.723C12.8383 142.424 12.4229 142.004 12.1149 141.463C11.8163 140.912 11.6669 140.268 11.6669 139.531C11.6669 138.793 11.8209 138.154 12.1289 137.613C12.4369 137.062 12.8523 136.637 13.3749 136.339C13.9069 136.04 14.4996 135.891 15.1529 135.891C15.8063 135.891 16.3943 136.04 16.9169 136.339C17.4396 136.637 17.8503 137.062 18.1489 137.613C18.4569 138.154 18.6109 138.793 18.6109 139.531C18.6109 140.268 18.4569 140.912 18.1489 141.463C17.8409 142.004 17.4209 142.424 16.8889 142.723C16.3663 143.021 15.7783 143.171 15.1249 143.171ZM15.1249 142.163C15.5263 142.163 15.8996 142.065 16.2449 141.869C16.5903 141.673 16.8703 141.379 17.0849 140.987C17.2996 140.595 17.4069 140.109 17.4069 139.531C17.4069 138.952 17.2996 138.467 17.0849 138.075C16.8796 137.683 16.6043 137.389 16.2589 137.193C15.9136 136.997 15.5449 136.899 15.1529 136.899C14.7516 136.899 14.3783 136.997 14.0329 137.193C13.6876 137.389 13.4076 137.683 13.1929 138.075C12.9783 138.467 12.8709 138.952 12.8709 139.531C12.8709 140.109 12.9783 140.595 13.1929 140.987C13.4076 141.379 13.6829 141.673 14.0189 141.869C14.3643 142.065 14.7329 142.163 15.1249 142.163ZM20.9461 143.003V136.059H22.0101L22.1081 137.389C22.3227 136.931 22.6494 136.567 23.0881 136.297C23.5267 136.026 24.0681 135.891 24.7121 135.891V137.123H24.3901C23.9794 137.123 23.6014 137.197 23.2561 137.347C22.9107 137.487 22.6354 137.729 22.4301 138.075C22.2247 138.42 22.1221 138.896 22.1221 139.503V143.003H20.9461ZM26.732 143.003V132.923H27.908V143.003H26.732ZM33.6855 143.171C32.9949 143.171 32.3882 143.012 31.8655 142.695C31.3522 142.377 30.9509 141.943 30.6615 141.393C30.3815 140.842 30.2415 140.217 30.2415 139.517C30.2415 138.817 30.3862 138.196 30.6755 137.655C30.9649 137.104 31.3662 136.675 31.8795 136.367C32.3929 136.049 32.9995 135.891 33.6995 135.891C34.2689 135.891 34.7729 136.007 35.2115 136.241C35.6502 136.474 35.9909 136.801 36.2335 137.221V132.923H37.4095V143.003H36.3455L36.2335 141.855C36.0095 142.191 35.6875 142.494 35.2675 142.765C34.8475 143.035 34.3202 143.171 33.6855 143.171ZM33.8115 142.149C34.2782 142.149 34.6889 142.041 35.0435 141.827C35.4075 141.603 35.6875 141.295 35.8835 140.903C36.0889 140.511 36.1915 140.053 36.1915 139.531C36.1915 139.008 36.0889 138.551 35.8835 138.159C35.6875 137.767 35.4075 137.463 35.0435 137.249C34.6889 137.025 34.2782 136.913 33.8115 136.913C33.3542 136.913 32.9435 137.025 32.5795 137.249C32.2249 137.463 31.9449 137.767 31.7395 138.159C31.5435 138.551 31.4455 139.008 31.4455 139.531C31.4455 140.053 31.5435 140.511 31.7395 140.903C31.9449 141.295 32.2249 141.603 32.5795 141.827C32.9435 142.041 33.3542 142.149 33.8115 142.149ZM47.6236 143.171C46.961 143.171 46.3636 143.021 45.8316 142.723C45.309 142.415 44.8936 141.99 44.5856 141.449C44.287 140.898 44.1376 140.259 44.1376 139.531C44.1376 138.803 44.287 138.168 44.5856 137.627C44.8936 137.076 45.309 136.651 45.8316 136.353C46.3636 136.045 46.961 135.891 47.6236 135.891C48.445 135.891 49.1356 136.105 49.6956 136.535C50.265 136.964 50.6243 137.538 50.7736 138.257H49.5696C49.4763 137.827 49.2476 137.496 48.8836 137.263C48.5196 137.02 48.095 136.899 47.6096 136.899C47.2176 136.899 46.849 136.997 46.5036 137.193C46.1583 137.389 45.8783 137.683 45.6636 138.075C45.449 138.467 45.3416 138.952 45.3416 139.531C45.3416 140.109 45.449 140.595 45.6636 140.987C45.8783 141.379 46.1583 141.677 46.5036 141.883C46.849 142.079 47.2176 142.177 47.6096 142.177C48.095 142.177 48.5196 142.06 48.8836 141.827C49.2476 141.584 49.4763 141.243 49.5696 140.805H50.7736C50.6336 141.505 50.279 142.074 49.7096 142.513C49.1403 142.951 48.445 143.171 47.6236 143.171ZM53.116 143.003V132.923H54.292V143.003H53.116ZM59.2295 143.171C58.6508 143.171 58.1702 143.073 57.7875 142.877C57.4048 142.681 57.1202 142.419 56.9335 142.093C56.7468 141.766 56.6535 141.411 56.6535 141.029C56.6535 140.319 56.9242 139.773 57.4655 139.391C58.0068 139.008 58.7442 138.817 59.6775 138.817H61.5535V138.733C61.5535 138.126 61.3948 137.669 61.0775 137.361C60.7602 137.043 60.3355 136.885 59.8035 136.885C59.3462 136.885 58.9495 137.001 58.6135 137.235C58.2868 137.459 58.0815 137.79 57.9975 138.229H56.7935C56.8402 137.725 57.0082 137.3 57.2975 136.955C57.5962 136.609 57.9648 136.348 58.4035 136.171C58.8422 135.984 59.3088 135.891 59.8035 135.891C60.7742 135.891 61.5022 136.152 61.9875 136.675C62.4822 137.188 62.7295 137.874 62.7295 138.733V143.003H61.6795L61.6095 141.757C61.4135 142.149 61.1242 142.485 60.7415 142.765C60.3682 143.035 59.8642 143.171 59.2295 143.171ZM59.4115 142.177C59.8595 142.177 60.2422 142.06 60.5595 141.827C60.8862 141.593 61.1335 141.29 61.3015 140.917C61.4695 140.543 61.5535 140.151 61.5535 139.741V139.727H59.7755C59.0848 139.727 58.5948 139.848 58.3055 140.091C58.0255 140.324 57.8855 140.618 57.8855 140.973C57.8855 141.337 58.0162 141.631 58.2775 141.855C58.5482 142.069 58.9262 142.177 59.4115 142.177ZM67.8537 143.171C67.0231 143.171 66.3324 142.961 65.7817 142.541C65.2311 142.121 64.9091 141.551 64.8157 140.833H66.0197C66.0944 141.197 66.2857 141.514 66.5937 141.785C66.9111 142.046 67.3357 142.177 67.8677 142.177C68.3624 142.177 68.7264 142.074 68.9597 141.869C69.1931 141.654 69.3097 141.402 69.3097 141.113C69.3097 140.693 69.1557 140.413 68.8477 140.273C68.5491 140.133 68.1244 140.007 67.5737 139.895C67.2004 139.82 66.8271 139.713 66.4537 139.573C66.0804 139.433 65.7677 139.237 65.5157 138.985C65.2637 138.723 65.1377 138.383 65.1377 137.963C65.1377 137.356 65.3617 136.861 65.8097 136.479C66.2671 136.087 66.8831 135.891 67.6577 135.891C68.3951 135.891 68.9971 136.077 69.4637 136.451C69.9397 136.815 70.2151 137.337 70.2897 138.019H69.1277C69.0811 137.664 68.9271 137.389 68.6657 137.193C68.4137 136.987 68.0731 136.885 67.6437 136.885C67.2237 136.885 66.8971 136.973 66.6637 137.151C66.4397 137.328 66.3277 137.561 66.3277 137.851C66.3277 138.131 66.4724 138.35 66.7617 138.509C67.0604 138.667 67.4617 138.803 67.9657 138.915C68.3951 139.008 68.8011 139.125 69.1837 139.265C69.5757 139.395 69.8931 139.596 70.1357 139.867C70.3877 140.128 70.5137 140.511 70.5137 141.015C70.5231 141.64 70.2851 142.158 69.7997 142.569C69.3237 142.97 68.6751 143.171 67.8537 143.171ZM75.5537 143.171C74.7231 143.171 74.0324 142.961 73.4817 142.541C72.9311 142.121 72.6091 141.551 72.5157 140.833H73.7197C73.7944 141.197 73.9857 141.514 74.2937 141.785C74.6111 142.046 75.0357 142.177 75.5677 142.177C76.0624 142.177 76.4264 142.074 76.6597 141.869C76.8931 141.654 77.0097 141.402 77.0097 141.113C77.0097 140.693 76.8557 140.413 76.5477 140.273C76.2491 140.133 75.8244 140.007 75.2737 139.895C74.9004 139.82 74.5271 139.713 74.1537 139.573C73.7804 139.433 73.4677 139.237 73.2157 138.985C72.9637 138.723 72.8377 138.383 72.8377 137.963C72.8377 137.356 73.0617 136.861 73.5097 136.479C73.9671 136.087 74.5831 135.891 75.3577 135.891C76.0951 135.891 76.6971 136.077 77.1637 136.451C77.6397 136.815 77.9151 137.337 77.9897 138.019H76.8277C76.7811 137.664 76.6271 137.389 76.3657 137.193C76.1137 136.987 75.7731 136.885 75.3437 136.885C74.9237 136.885 74.5971 136.973 74.3637 137.151C74.1397 137.328 74.0277 137.561 74.0277 137.851C74.0277 138.131 74.1724 138.35 74.4617 138.509C74.7604 138.667 75.1617 138.803 75.6657 138.915C76.0951 139.008 76.5011 139.125 76.8837 139.265C77.2757 139.395 77.5931 139.596 77.8357 139.867C78.0877 140.128 78.2137 140.511 78.2137 141.015C78.2231 141.64 77.9851 142.158 77.4997 142.569C77.0237 142.97 76.3751 143.171 75.5537 143.171ZM85.0688 143.003V133.203H88.2328C88.9981 133.203 89.6235 133.329 90.1088 133.581C90.5941 133.833 90.9535 134.178 91.1868 134.617C91.4201 135.055 91.5368 135.541 91.5368 136.073C91.5368 136.689 91.3688 137.244 91.0328 137.739C90.7061 138.233 90.1928 138.583 89.4928 138.789L91.6348 143.003H90.2488L88.2608 138.957H88.1768H86.2448V143.003H85.0688ZM86.2448 138.033H88.1488C88.9048 138.033 89.4555 137.851 89.8008 137.487C90.1461 137.123 90.3188 136.656 90.3188 136.087C90.3188 135.508 90.1461 135.051 89.8008 134.715C89.4648 134.369 88.9095 134.197 88.1348 134.197H86.2448V138.033ZM96.7378 143.171C96.0845 143.171 95.4965 143.021 94.9738 142.723C94.4511 142.424 94.0358 142.004 93.7278 141.463C93.4291 140.912 93.2798 140.268 93.2798 139.531C93.2798 138.793 93.4338 138.154 93.7418 137.613C94.0498 137.062 94.4651 136.637 94.9878 136.339C95.5198 136.04 96.1125 135.891 96.7658 135.891C97.4191 135.891 98.0071 136.04 98.5298 136.339C99.0525 136.637 99.4631 137.062 99.7618 137.613C100.07 138.154 100.224 138.793 100.224 139.531C100.224 140.268 100.07 140.912 99.7618 141.463C99.4538 142.004 99.0338 142.424 98.5018 142.723C97.9791 143.021 97.3911 143.171 96.7378 143.171ZM96.7378 142.163C97.1391 142.163 97.5125 142.065 97.8578 141.869C98.2031 141.673 98.4831 141.379 98.6978 140.987C98.9125 140.595 99.0198 140.109 99.0198 139.531C99.0198 138.952 98.9125 138.467 98.6978 138.075C98.4925 137.683 98.2171 137.389 97.8718 137.193C97.5265 136.997 97.1578 136.899 96.7658 136.899C96.3645 136.899 95.9911 136.997 95.6458 137.193C95.3005 137.389 95.0205 137.683 94.8058 138.075C94.5911 138.467 94.4838 138.952 94.4838 139.531C94.4838 140.109 94.5911 140.595 94.8058 140.987C95.0205 141.379 95.2958 141.673 95.6318 141.869C95.9771 142.065 96.3458 142.163 96.7378 142.163ZM105.723 143.171C105.07 143.171 104.482 143.021 103.959 142.723C103.436 142.424 103.021 142.004 102.713 141.463C102.414 140.912 102.265 140.268 102.265 139.531C102.265 138.793 102.419 138.154 102.727 137.613C103.035 137.062 103.45 136.637 103.973 136.339C104.505 136.04 105.098 135.891 105.751 135.891C106.404 135.891 106.992 136.04 107.515 136.339C108.038 136.637 108.448 137.062 108.747 137.613C109.055 138.154 109.209 138.793 109.209 139.531C109.209 140.268 109.055 140.912 108.747 141.463C108.439 142.004 108.019 142.424 107.487 142.723C106.964 143.021 106.376 143.171 105.723 143.171ZM105.723 142.163C106.124 142.163 106.498 142.065 106.843 141.869C107.188 141.673 107.468 141.379 107.683 140.987C107.898 140.595 108.005 140.109 108.005 139.531C108.005 138.952 107.898 138.467 107.683 138.075C107.478 137.683 107.202 137.389 106.857 137.193C106.512 136.997 106.143 136.899 105.751 136.899C105.35 136.899 104.976 136.997 104.631 137.193C104.286 137.389 104.006 137.683 103.791 138.075C103.576 138.467 103.469 138.952 103.469 139.531C103.469 140.109 103.576 140.595 103.791 140.987C104.006 141.379 104.281 141.673 104.617 141.869C104.962 142.065 105.331 142.163 105.723 142.163ZM111.922 143.003V137.053H110.872V136.059H111.922V134.855C111.922 134.183 112.09 133.693 112.426 133.385C112.762 133.077 113.252 132.923 113.896 132.923H114.596V133.931H114.078C113.723 133.931 113.471 134.005 113.322 134.155C113.173 134.295 113.098 134.537 113.098 134.883V136.059H117.41V143.003H116.234V137.053H113.098V143.003H111.922ZM116.836 134.729C116.612 134.729 116.421 134.654 116.262 134.505C116.103 134.346 116.024 134.15 116.024 133.917C116.024 133.693 116.103 133.506 116.262 133.357C116.421 133.207 116.612 133.133 116.836 133.133C117.069 133.133 117.261 133.207 117.41 133.357C117.569 133.506 117.648 133.693 117.648 133.917C117.648 134.15 117.569 134.346 117.41 134.505C117.261 134.654 117.069 134.729 116.836 134.729ZM120.187 143.003V136.059H121.251L121.321 137.305C121.545 136.866 121.867 136.521 122.287 136.269C122.707 136.017 123.183 135.891 123.715 135.891C124.537 135.891 125.19 136.143 125.675 136.647C126.17 137.141 126.417 137.907 126.417 138.943V143.003H125.241V139.069C125.241 137.622 124.644 136.899 123.449 136.899C122.852 136.899 122.353 137.118 121.951 137.557C121.559 137.986 121.363 138.602 121.363 139.405V143.003H120.187ZM131.643 140.819C131.251 140.819 130.892 140.767 130.565 140.665L129.865 141.323C129.968 141.397 130.094 141.463 130.243 141.519C130.402 141.565 130.626 141.612 130.915 141.659C131.205 141.696 131.611 141.738 132.133 141.785C133.067 141.85 133.734 142.065 134.135 142.429C134.537 142.793 134.737 143.269 134.737 143.857C134.737 144.258 134.625 144.641 134.401 145.005C134.187 145.369 133.851 145.667 133.393 145.901C132.945 146.134 132.367 146.251 131.657 146.251C131.032 146.251 130.477 146.167 129.991 145.999C129.506 145.84 129.128 145.593 128.857 145.257C128.587 144.93 128.451 144.515 128.451 144.011C128.451 143.749 128.521 143.465 128.661 143.157C128.801 142.858 129.063 142.573 129.445 142.303C129.24 142.219 129.063 142.13 128.913 142.037C128.773 141.934 128.643 141.822 128.521 141.701V141.379L129.711 140.203C129.161 139.736 128.885 139.12 128.885 138.355C128.885 137.897 128.993 137.482 129.207 137.109C129.422 136.735 129.735 136.441 130.145 136.227C130.556 136.003 131.055 135.891 131.643 135.891C132.045 135.891 132.409 135.947 132.735 136.059H135.297V136.941L133.995 136.997C134.266 137.389 134.401 137.841 134.401 138.355C134.401 138.812 134.289 139.227 134.065 139.601C133.851 139.974 133.538 140.273 133.127 140.497C132.726 140.711 132.231 140.819 131.643 140.819ZM131.643 139.853C132.138 139.853 132.53 139.727 132.819 139.475C133.118 139.213 133.267 138.84 133.267 138.355C133.267 137.879 133.118 137.515 132.819 137.263C132.53 137.001 132.138 136.871 131.643 136.871C131.139 136.871 130.738 137.001 130.439 137.263C130.15 137.515 130.005 137.879 130.005 138.355C130.005 138.84 130.15 139.213 130.439 139.475C130.738 139.727 131.139 139.853 131.643 139.853ZM129.599 143.899C129.599 144.365 129.795 144.711 130.187 144.935C130.579 145.168 131.069 145.285 131.657 145.285C132.236 145.285 132.698 145.159 133.043 144.907C133.398 144.655 133.575 144.319 133.575 143.899C133.575 143.6 133.454 143.339 133.211 143.115C132.969 142.9 132.521 142.774 131.867 142.737C131.354 142.699 130.911 142.653 130.537 142.597C130.155 142.802 129.903 143.021 129.781 143.255C129.66 143.497 129.599 143.712 129.599 143.899ZM144.921 143.171C144.202 143.171 143.577 143.04 143.045 142.779C142.513 142.517 142.102 142.153 141.813 141.687C141.524 141.22 141.379 140.679 141.379 140.063H142.611C142.611 140.445 142.7 140.8 142.877 141.127C143.054 141.444 143.311 141.701 143.647 141.897C143.992 142.083 144.417 142.177 144.921 142.177C145.584 142.177 146.097 142.018 146.461 141.701C146.825 141.383 147.007 140.987 147.007 140.511C147.007 140.119 146.923 139.806 146.755 139.573C146.587 139.33 146.358 139.134 146.069 138.985C145.789 138.835 145.462 138.705 145.089 138.593C144.725 138.481 144.342 138.355 143.941 138.215C143.185 137.953 142.625 137.631 142.261 137.249C141.897 136.857 141.715 136.348 141.715 135.723C141.706 135.2 141.827 134.738 142.079 134.337C142.331 133.926 142.686 133.609 143.143 133.385C143.61 133.151 144.16 133.035 144.795 133.035C145.42 133.035 145.962 133.151 146.419 133.385C146.886 133.618 147.245 133.94 147.497 134.351C147.758 134.761 147.894 135.228 147.903 135.751H146.671C146.671 135.48 146.601 135.214 146.461 134.953C146.321 134.682 146.106 134.463 145.817 134.295C145.537 134.127 145.182 134.043 144.753 134.043C144.221 134.033 143.782 134.169 143.437 134.449C143.101 134.729 142.933 135.116 142.933 135.611C142.933 136.031 143.05 136.353 143.283 136.577C143.526 136.801 143.862 136.987 144.291 137.137C144.72 137.277 145.215 137.44 145.775 137.627C146.242 137.795 146.662 137.991 147.035 138.215C147.408 138.439 147.698 138.728 147.903 139.083C148.118 139.437 148.225 139.89 148.225 140.441C148.225 140.907 148.104 141.351 147.861 141.771C147.618 142.181 147.25 142.517 146.755 142.779C146.27 143.04 145.658 143.171 144.921 143.171ZM153.645 143.171C152.982 143.171 152.394 143.021 151.881 142.723C151.367 142.415 150.961 141.99 150.663 141.449C150.373 140.907 150.229 140.268 150.229 139.531C150.229 138.803 150.373 138.168 150.663 137.627C150.952 137.076 151.353 136.651 151.867 136.353C152.389 136.045 152.991 135.891 153.673 135.891C154.345 135.891 154.923 136.045 155.409 136.353C155.903 136.651 156.281 137.048 156.543 137.543C156.804 138.037 156.935 138.569 156.935 139.139C156.935 139.241 156.93 139.344 156.921 139.447C156.921 139.549 156.921 139.666 156.921 139.797H151.391C151.419 140.329 151.54 140.772 151.755 141.127C151.979 141.472 152.254 141.733 152.581 141.911C152.917 142.088 153.271 142.177 153.645 142.177C154.13 142.177 154.536 142.065 154.863 141.841C155.189 141.617 155.427 141.313 155.577 140.931H156.739C156.552 141.575 156.193 142.111 155.661 142.541C155.138 142.961 154.466 143.171 153.645 143.171ZM153.645 136.885C153.085 136.885 152.585 137.057 152.147 137.403C151.717 137.739 151.47 138.233 151.405 138.887H155.773C155.745 138.261 155.53 137.771 155.129 137.417C154.727 137.062 154.233 136.885 153.645 136.885ZM159.193 143.003V136.059H160.257L160.355 137.389C160.57 136.931 160.897 136.567 161.335 136.297C161.774 136.026 162.315 135.891 162.959 135.891V137.123H162.637C162.227 137.123 161.849 137.197 161.503 137.347C161.158 137.487 160.883 137.729 160.677 138.075C160.472 138.42 160.369 138.896 160.369 139.503V143.003H159.193ZM166.981 143.003L164.349 136.059H165.581L167.667 141.869L169.767 136.059H170.971L168.339 143.003H166.981ZM173.694 134.519C173.461 134.519 173.265 134.444 173.106 134.295C172.957 134.136 172.882 133.94 172.882 133.707C172.882 133.483 172.957 133.296 173.106 133.147C173.265 132.997 173.461 132.923 173.694 132.923C173.918 132.923 174.109 132.997 174.268 133.147C174.427 133.296 174.506 133.483 174.506 133.707C174.506 133.94 174.427 134.136 174.268 134.295C174.109 134.444 173.918 134.519 173.694 134.519ZM173.106 143.003V136.059H174.282V143.003H173.106ZM180.222 143.171C179.559 143.171 178.962 143.021 178.43 142.723C177.907 142.415 177.492 141.99 177.184 141.449C176.885 140.898 176.736 140.259 176.736 139.531C176.736 138.803 176.885 138.168 177.184 137.627C177.492 137.076 177.907 136.651 178.43 136.353C178.962 136.045 179.559 135.891 180.222 135.891C181.043 135.891 181.734 136.105 182.294 136.535C182.863 136.964 183.222 137.538 183.372 138.257H182.168C182.074 137.827 181.846 137.496 181.482 137.263C181.118 137.02 180.693 136.899 180.208 136.899C179.816 136.899 179.447 136.997 179.102 137.193C178.756 137.389 178.476 137.683 178.262 138.075C178.047 138.467 177.94 138.952 177.94 139.531C177.94 140.109 178.047 140.595 178.262 140.987C178.476 141.379 178.756 141.677 179.102 141.883C179.447 142.079 179.816 142.177 180.208 142.177C180.693 142.177 181.118 142.06 181.482 141.827C181.846 141.584 182.074 141.243 182.168 140.805H183.372C183.232 141.505 182.877 142.074 182.308 142.513C181.738 142.951 181.043 143.171 180.222 143.171ZM188.836 143.171C188.173 143.171 187.585 143.021 187.072 142.723C186.559 142.415 186.153 141.99 185.854 141.449C185.565 140.907 185.42 140.268 185.42 139.531C185.42 138.803 185.565 138.168 185.854 137.627C186.143 137.076 186.545 136.651 187.058 136.353C187.581 136.045 188.183 135.891 188.864 135.891C189.536 135.891 190.115 136.045 190.6 136.353C191.095 136.651 191.473 137.048 191.734 137.543C191.995 138.037 192.126 138.569 192.126 139.139C192.126 139.241 192.121 139.344 192.112 139.447C192.112 139.549 192.112 139.666 192.112 139.797H186.582C186.61 140.329 186.731 140.772 186.946 141.127C187.17 141.472 187.445 141.733 187.772 141.911C188.108 142.088 188.463 142.177 188.836 142.177C189.321 142.177 189.727 142.065 190.054 141.841C190.381 141.617 190.619 141.313 190.768 140.931H191.93C191.743 141.575 191.384 142.111 190.852 142.541C190.329 142.961 189.657 143.171 188.836 143.171ZM188.836 136.885C188.276 136.885 187.777 137.057 187.338 137.403C186.909 137.739 186.661 138.233 186.596 138.887H190.964C190.936 138.261 190.721 137.771 190.32 137.417C189.919 137.062 189.424 136.885 188.836 136.885Z" fill="#AEAEAE"/>
</svg>
